<svg width="30" height="17" viewBox="0 0 30 17" fill="none" xmlns="http://www.w3.org/2000/svg">
<path fill-rule="evenodd" clip-rule="evenodd" d="M26.4843 16.6867C24.2854 16.6867 1.523 16.6265 1.523 16.6265V14.3054L29.3929 13.8523C29.3929 13.8523 29.7542 16.6867 26.4843 16.6867ZM1.67446 12.3099C-0.457803 9.38727 1.61553 3.30858 2.62246 3.30858C3.6294 3.30858 4.6974 5.01937 6.77153 4.97437C7.53286 4.95779 8.48033 4.38384 9.6982 3.792C9.09873 1.70306 10.9043 0.302002 10.9043 0.302002L13.8393 2.5299C14.1195 2.50437 14.4075 2.49042 14.7049 2.49042C14.7049 2.49042 15.4851 3.03911 16.6742 3.82648L14.7633 5.2949L15.7299 6.36727L18.3705 4.92806C18.7787 5.18779 19.2075 5.45621 19.647 5.72621L17.6531 7.14306L18.6198 8.18885L21.3214 6.72542C21.7953 6.99963 22.2713 7.26648 22.7401 7.51911L20.6662 8.89121L21.6537 9.92674L24.6553 8.47858C25.5939 8.90621 26.4377 9.21385 27.0939 9.32358C29.5038 9.72621 29.4006 12.6899 29.4006 12.6899C29.4006 12.6899 4.22193 12.3099 1.67446 12.3099ZM12.0481 6.31516L11.5657 6.58806C12.5027 9.94253 10.9073 9.63621 3.39286 7.11727L3.195 7.45385C15.6465 14.1081 14.7843 9.14542 12.0481 6.31516Z" fill="#27A8DD"/>
</svg>
