<svg width="20" height="25" viewBox="0 0 20 25" fill="none" xmlns="http://www.w3.org/2000/svg">
<path fill-rule="evenodd" clip-rule="evenodd" d="M19.8121 7.74298L18.2323 8.05193L17.9451 9.24535L19.8105 8.91193L19.8089 10.0627L17.647 10.4856L17.3603 11.6772L19.8075 11.2359L19.8059 12.3796L17.0625 12.9161L16.7771 14.1027L19.8046 13.5567L19.7931 22.078L19.0414 23.0748L19.0398 24.5061L13.8801 24.4596L13.7337 22.9361L12.8715 22.0759L12.0819 11.0177L11.0843 10.7901L7.34487 21.2035L6.26407 21.8717L5.68807 23.3848L1.05314 22.2753L1.5222 20.4309L0.96167 19.2369L5.36274 3.03956L6.66887 2.11719L7.18274 0.509033L18.8574 2.02245L18.8553 3.53798L19.8158 4.74219L19.8121 7.74298ZM10.5195 2.39377L9.32487 8.03061L10.4019 8.23403L11.6707 2.77035L10.5195 2.39377ZM13.5841 2.88719L13.1907 8.74666L14.3011 8.8343L14.7862 3.04824L13.5841 2.88719Z" fill="#545C60"/>
</svg>
